<?xml version="1.0" encoding="UTF-8" standalone="no"?><svg xmlns="http://www.w3.org/2000/svg" xmlns:xlink="http://www.w3.org/1999/xlink" contentStyleType="text/css" height="1142px" preserveAspectRatio="none" style="width:1133px;height:1142px;background:#FFFFFF;" version="1.1" viewBox="0 0 1133 1142" width="1133px" zoomAndPan="magnify"><defs/><g><!--MD5=[a70b0d373322012744ecc119c63f921b]
cluster main--><g id="cluster_main"><path d="M469.5,528 L503.5,528 A3.75,3.75 0 0 1 506,530.5 L513,551.6094 L702.5,551.6094 A2.5,2.5 0 0 1 705,554.1094 L705,924.5 A2.5,2.5 0 0 1 702.5,927 L469.5,927 A2.5,2.5 0 0 1 467,924.5 L467,530.5 A2.5,2.5 0 0 1 469.5,528 " fill="none" style="stroke:#000000;stroke-width:1.5;"/><line style="stroke:#000000;stroke-width:1.5;" x1="467" x2="513" y1="551.6094" y2="551.6094"/><text fill="#000000" font-family="sans-serif" font-size="14" font-weight="bold" lengthAdjust="spacing" textLength="33" x="471" y="544.5332">main</text></g><!--MD5=[e2a75efa8a0f57c2afae8bf75386f79c]
cluster views--><g id="cluster_views"><path d="M8.5,951 L50.5,951 A3.75,3.75 0 0 1 53,953.5 L60,974.6094 L1123.5,974.6094 A2.5,2.5 0 0 1 1126,977.1094 L1126,1132.5 A2.5,2.5 0 0 1 1123.5,1135 L8.5,1135 A2.5,2.5 0 0 1 6,1132.5 L6,953.5 A2.5,2.5 0 0 1 8.5,951 " fill="none" style="stroke:#000000;stroke-width:1.5;"/><line style="stroke:#000000;stroke-width:1.5;" x1="6" x2="60" y1="974.6094" y2="974.6094"/><text fill="#000000" font-family="sans-serif" font-size="14" font-weight="bold" lengthAdjust="spacing" textLength="41" x="10" y="967.5332">views</text></g><!--MD5=[a60570e4b426f702ccbb0d459e3b9417]
cluster models--><g id="cluster_models"><path d="M90.5,6 L142.5,6 A3.75,3.75 0 0 1 145,8.5 L152,29.6094 L515.5,29.6094 A2.5,2.5 0 0 1 518,32.1094 L518,424.5 A2.5,2.5 0 0 1 515.5,427 L90.5,427 A2.5,2.5 0 0 1 88,424.5 L88,8.5 A2.5,2.5 0 0 1 90.5,6 " fill="none" style="stroke:#000000;stroke-width:1.5;"/><line style="stroke:#000000;stroke-width:1.5;" x1="88" x2="152" y1="29.6094" y2="29.6094"/><text fill="#000000" font-family="sans-serif" font-size="14" font-weight="bold" lengthAdjust="spacing" textLength="51" x="92" y="22.5332">models</text></g><!--MD5=[f4e70ef68289585296b9045165e58692]
cluster controllers--><g id="cluster_controllers"><path d="M205.5,451 L283.5,451 A3.75,3.75 0 0 1 286,453.5 L293,474.6094 L408.5,474.6094 A2.5,2.5 0 0 1 411,477.1094 L411,816.5 A2.5,2.5 0 0 1 408.5,819 L205.5,819 A2.5,2.5 0 0 1 203,816.5 L203,453.5 A2.5,2.5 0 0 1 205.5,451 " fill="none" style="stroke:#000000;stroke-width:1.5;"/><line style="stroke:#000000;stroke-width:1.5;" x1="203" x2="293" y1="474.6094" y2="474.6094"/><text fill="#000000" font-family="sans-serif" font-size="14" font-weight="bold" lengthAdjust="spacing" textLength="77" x="207" y="467.5332">controllers</text></g><!--MD5=[ef56c9b6a6d929bfb46986ea8cd61abc]
cluster enum--><g id="cluster_enum"><path d="M544.5,140 L584.5,140 A3.75,3.75 0 0 1 587,142.5 L594,163.6094 L661.5,163.6094 A2.5,2.5 0 0 1 664,166.1094 L664,290.5 A2.5,2.5 0 0 1 661.5,293 L544.5,293 A2.5,2.5 0 0 1 542,290.5 L542,142.5 A2.5,2.5 0 0 1 544.5,140 " fill="none" style="stroke:#000000;stroke-width:1.5;"/><line style="stroke:#000000;stroke-width:1.5;" x1="542" x2="594" y1="163.6094" y2="163.6094"/><text fill="#000000" font-family="sans-serif" font-size="14" font-weight="bold" lengthAdjust="spacing" textLength="39" x="546" y="156.5332">enum</text></g><!--MD5=[8d6fa5d7ef39dc69d33f962c88ef81d2]
class main.MainWindow--><g id="elem_main.MainWindow"><rect codeLine="2" fill="#F1F1F1" height="162.4609" id="main.MainWindow" rx="2.5" ry="2.5" style="stroke:#181818;stroke-width:0.5;" width="206" x="483" y="564"/><ellipse cx="542.25" cy="580" fill="#ADD1B2" rx="11" ry="11" style="stroke:#181818;stroke-width:1.0;"/><path d="M545.0156,575.875 Q545.1719,575.6563 545.3594,575.5469 Q545.5469,575.4375 545.7656,575.4375 Q546.1406,575.4375 546.375,575.7031 Q546.6094,575.9531 546.6094,576.5625 L546.6094,578.0156 Q546.6094,578.625 546.375,578.8906 Q546.1406,579.1563 545.7656,579.1563 Q545.4219,579.1563 545.2188,578.9531 Q545.0156,578.7656 544.9063,578.25 Q544.8594,577.8906 544.6719,577.7031 Q544.3438,577.3281 543.7344,577.1094 Q543.125,576.8906 542.5,576.8906 Q541.7344,576.8906 541.0938,577.2188 Q540.4688,577.5469 539.9688,578.2969 Q539.4844,579.0469 539.4844,580.0781 L539.4844,581.1719 Q539.4844,582.4063 540.375,583.2344 Q541.2656,584.0469 542.8594,584.0469 Q543.7969,584.0469 544.4531,583.7969 Q544.8438,583.6406 545.2656,583.2031 Q545.5313,582.9375 545.6719,582.8594 Q545.8281,582.7813 546.0313,582.7813 Q546.3594,582.7813 546.6094,583.0469 Q546.875,583.2969 546.875,583.6406 Q546.875,583.9844 546.5313,584.3906 Q546.0313,584.9688 545.2344,585.2969 Q544.1563,585.75 542.8594,585.75 Q541.3438,585.75 540.1406,585.125 Q539.1563,584.625 538.4688,583.5625 Q537.7813,582.4844 537.7813,581.2031 L537.7813,580.0469 Q537.7813,578.7188 538.3906,577.5781 Q539.0156,576.4219 540.1094,575.8125 Q541.2031,575.1875 542.4375,575.1875 Q543.1719,575.1875 543.8125,575.3594 Q544.4688,575.5156 545.0156,575.875 Z " fill="#000000"/><text fill="#000000" font-family="sans-serif" font-size="14" lengthAdjust="spacing" textLength="79" x="562.75" y="585.7285">MainWindow</text><line style="stroke:#181818;stroke-width:0.5;" x1="484" x2="688" y1="596" y2="596"/><rect fill="none" height="6" style="stroke:#C82930;stroke-width:1.0;" width="6" x="491" y="607.3047"/><text fill="#000000" font-family="sans-serif" font-size="14" lengthAdjust="spacing" textLength="150" x="503" y="614.5332">ContenidoActual:JPanel</text><ellipse cx="494" cy="649.5234" fill="#84BE84" rx="3" ry="3" style="stroke:#038048;stroke-width:1.0;"/><text fill="#000000" font-family="sans-serif" font-size="14" lengthAdjust="spacing" textLength="180" x="503" y="653.752">getContenidoActual():JPanel</text><line style="stroke:#181818;stroke-width:0.5;" x1="484" x2="564" y1="630.4141" y2="630.4141"/><text fill="#000000" font-family="sans-serif" font-size="14" lengthAdjust="spacing" textLength="44" x="564" y="635.6426">getters</text><line style="stroke:#181818;stroke-width:0.5;" x1="608" x2="688" y1="630.4141" y2="630.4141"/><ellipse cx="494" cy="688.7422" fill="#84BE84" rx="3" ry="3" style="stroke:#038048;stroke-width:1.0;"/><text fill="#000000" font-family="sans-serif" font-size="14" lengthAdjust="spacing" textLength="179" x="503" y="692.9707">setContenidoActual():JPanel</text><line style="stroke:#181818;stroke-width:0.5;" x1="484" x2="564.5" y1="669.6328" y2="669.6328"/><text fill="#000000" font-family="sans-serif" font-size="14" lengthAdjust="spacing" textLength="43" x="564.5" y="674.8613">setters</text><line style="stroke:#181818;stroke-width:0.5;" x1="607.5" x2="688" y1="669.6328" y2="669.6328"/><line style="stroke:#181818;stroke-width:0.5;" x1="484" x2="559" y1="708.8516" y2="708.8516"/><text fill="#000000" font-family="sans-serif" font-size="14" lengthAdjust="spacing" textLength="54" x="559" y="714.0801">metodos</text><line style="stroke:#181818;stroke-width:0.5;" x1="613" x2="688" y1="708.8516" y2="708.8516"/></g><!--MD5=[c12f6d72f82a680cd786f4a9f62fe07b]
class main.JPanel--><g id="elem_main.JPanel"><rect fill="#F1F1F1" height="48" id="main.JPanel" rx="2.5" ry="2.5" style="stroke:#181818;stroke-width:0.5;" width="74" x="549" y="863"/><ellipse cx="564" cy="879" fill="#ADD1B2" rx="11" ry="11" style="stroke:#181818;stroke-width:1.0;"/><path d="M566.7656,874.875 Q566.9219,874.6563 567.1094,874.5469 Q567.2969,874.4375 567.5156,874.4375 Q567.8906,874.4375 568.125,874.7031 Q568.3594,874.9531 568.3594,875.5625 L568.3594,877.0156 Q568.3594,877.625 568.125,877.8906 Q567.8906,878.1563 567.5156,878.1563 Q567.1719,878.1563 566.9688,877.9531 Q566.7656,877.7656 566.6563,877.25 Q566.6094,876.8906 566.4219,876.7031 Q566.0938,876.3281 565.4844,876.1094 Q564.875,875.8906 564.25,875.8906 Q563.4844,875.8906 562.8438,876.2188 Q562.2188,876.5469 561.7188,877.2969 Q561.2344,878.0469 561.2344,879.0781 L561.2344,880.1719 Q561.2344,881.4063 562.125,882.2344 Q563.0156,883.0469 564.6094,883.0469 Q565.5469,883.0469 566.2031,882.7969 Q566.5938,882.6406 567.0156,882.2031 Q567.2813,881.9375 567.4219,881.8594 Q567.5781,881.7813 567.7813,881.7813 Q568.1094,881.7813 568.3594,882.0469 Q568.625,882.2969 568.625,882.6406 Q568.625,882.9844 568.2813,883.3906 Q567.7813,883.9688 566.9844,884.2969 Q565.9063,884.75 564.6094,884.75 Q563.0938,884.75 561.8906,884.125 Q560.9063,883.625 560.2188,882.5625 Q559.5313,881.4844 559.5313,880.2031 L559.5313,879.0469 Q559.5313,877.7188 560.1406,876.5781 Q560.7656,875.4219 561.8594,874.8125 Q562.9531,874.1875 564.1875,874.1875 Q564.9219,874.1875 565.5625,874.3594 Q566.2188,874.5156 566.7656,874.875 Z " fill="#000000"/><text fill="#000000" font-family="sans-serif" font-size="14" lengthAdjust="spacing" textLength="42" x="578" y="884.7285">JPanel</text><line style="stroke:#181818;stroke-width:0.5;" x1="550" x2="622" y1="895" y2="895"/><line style="stroke:#181818;stroke-width:0.5;" x1="550" x2="622" y1="903" y2="903"/></g><!--MD5=[96ccc675d493c83b2e590618efefcf7f]
class views.Start--><g id="elem_views.Start"><rect codeLine="11" fill="#F1F1F1" height="114.4375" id="views.Start" rx="2.5" ry="2.5" style="stroke:#181818;stroke-width:0.5;" width="333" x="776.5" y="996"/><ellipse cx="923.75" cy="1012" fill="#ADD1B2" rx="11" ry="11" style="stroke:#181818;stroke-width:1.0;"/><path d="M926.5156,1007.875 Q926.6719,1007.6563 926.8594,1007.5469 Q927.0469,1007.4375 927.2656,1007.4375 Q927.6406,1007.4375 927.875,1007.7031 Q928.1094,1007.9531 928.1094,1008.5625 L928.1094,1010.0156 Q928.1094,1010.625 927.875,1010.8906 Q927.6406,1011.1563 927.2656,1011.1563 Q926.9219,1011.1563 926.7188,1010.9531 Q926.5156,1010.7656 926.4063,1010.25 Q926.3594,1009.8906 926.1719,1009.7031 Q925.8438,1009.3281 925.2344,1009.1094 Q924.625,1008.8906 924,1008.8906 Q923.2344,1008.8906 922.5938,1009.2188 Q921.9688,1009.5469 921.4688,1010.2969 Q920.9844,1011.0469 920.9844,1012.0781 L920.9844,1013.1719 Q920.9844,1014.4063 921.875,1015.2344 Q922.7656,1016.0469 924.3594,1016.0469 Q925.2969,1016.0469 925.9531,1015.7969 Q926.3438,1015.6406 926.7656,1015.2031 Q927.0313,1014.9375 927.1719,1014.8594 Q927.3281,1014.7813 927.5313,1014.7813 Q927.8594,1014.7813 928.1094,1015.0469 Q928.375,1015.2969 928.375,1015.6406 Q928.375,1015.9844 928.0313,1016.3906 Q927.5313,1016.9688 926.7344,1017.2969 Q925.6563,1017.75 924.3594,1017.75 Q922.8438,1017.75 921.6406,1017.125 Q920.6563,1016.625 919.9688,1015.5625 Q919.2813,1014.4844 919.2813,1013.2031 L919.2813,1012.0469 Q919.2813,1010.7188 919.8906,1009.5781 Q920.5156,1008.4219 921.6094,1007.8125 Q922.7031,1007.1875 923.9375,1007.1875 Q924.6719,1007.1875 925.3125,1007.3594 Q925.9688,1007.5156 926.5156,1007.875 Z " fill="#000000"/><text fill="#000000" font-family="sans-serif" font-size="14" lengthAdjust="spacing" textLength="30" x="944.25" y="1017.7285">Start</text><line style="stroke:#181818;stroke-width:0.5;" x1="777.5" x2="1108.5" y1="1028" y2="1028"/><rect fill="none" height="6" style="stroke:#C82930;stroke-width:1.0;" width="6" x="784.5" y="1039.3047"/><text fill="#000000" font-family="sans-serif" font-size="14" lengthAdjust="spacing" textLength="166" x="796.5" y="1046.5332">mainWindow: MainWindow</text><ellipse cx="787.5" cy="1081.5234" fill="#84BE84" rx="3" ry="3" style="stroke:#038048;stroke-width:1.0;"/><text fill="#000000" font-family="sans-serif" font-size="14" lengthAdjust="spacing" textLength="251" x="796.5" y="1085.752">MainScreen(mainWindow,MainWindow):</text><rect fill="#F24D5C" height="6" style="stroke:#C82930;stroke-width:1.0;" width="6" x="784.5" y="1096.1328"/><text fill="#000000" font-family="sans-serif" font-size="14" lengthAdjust="spacing" textLength="307" x="796.5" y="1103.3613">btn_jugarActionPerformed(evt:ActionEvent): void</text><line style="stroke:#181818;stroke-width:0.5;" x1="777.5" x2="916" y1="1062.4141" y2="1062.4141"/><text fill="#000000" font-family="sans-serif" font-size="14" lengthAdjust="spacing" textLength="54" x="916" y="1067.6426">metodos</text><line style="stroke:#181818;stroke-width:0.5;" x1="970" x2="1108.5" y1="1062.4141" y2="1062.4141"/></g><!--MD5=[4d752f408ce202b2b8c08cde94867bd4]
class views.Gameplay--><g id="elem_views.Gameplay"><rect codeLine="18" fill="#F1F1F1" height="132.0469" id="views.Gameplay" rx="2.5" ry="2.5" style="stroke:#181818;stroke-width:0.5;" width="311" x="430.5" y="987"/><ellipse cx="549.75" cy="1003" fill="#ADD1B2" rx="11" ry="11" style="stroke:#181818;stroke-width:1.0;"/><path d="M552.5156,998.875 Q552.6719,998.6563 552.8594,998.5469 Q553.0469,998.4375 553.2656,998.4375 Q553.6406,998.4375 553.875,998.7031 Q554.1094,998.9531 554.1094,999.5625 L554.1094,1001.0156 Q554.1094,1001.625 553.875,1001.8906 Q553.6406,1002.1563 553.2656,1002.1563 Q552.9219,1002.1563 552.7188,1001.9531 Q552.5156,1001.7656 552.4063,1001.25 Q552.3594,1000.8906 552.1719,1000.7031 Q551.8438,1000.3281 551.2344,1000.1094 Q550.625,999.8906 550,999.8906 Q549.2344,999.8906 548.5938,1000.2188 Q547.9688,1000.5469 547.4688,1001.2969 Q546.9844,1002.0469 546.9844,1003.0781 L546.9844,1004.1719 Q546.9844,1005.4063 547.875,1006.2344 Q548.7656,1007.0469 550.3594,1007.0469 Q551.2969,1007.0469 551.9531,1006.7969 Q552.3438,1006.6406 552.7656,1006.2031 Q553.0313,1005.9375 553.1719,1005.8594 Q553.3281,1005.7813 553.5313,1005.7813 Q553.8594,1005.7813 554.1094,1006.0469 Q554.375,1006.2969 554.375,1006.6406 Q554.375,1006.9844 554.0313,1007.3906 Q553.5313,1007.9688 552.7344,1008.2969 Q551.6563,1008.75 550.3594,1008.75 Q548.8438,1008.75 547.6406,1008.125 Q546.6563,1007.625 545.9688,1006.5625 Q545.2813,1005.4844 545.2813,1004.2031 L545.2813,1003.0469 Q545.2813,1001.7188 545.8906,1000.5781 Q546.5156,999.4219 547.6094,998.8125 Q548.7031,998.1875 549.9375,998.1875 Q550.6719,998.1875 551.3125,998.3594 Q551.9688,998.5156 552.5156,998.875 Z " fill="#000000"/><text fill="#000000" font-family="sans-serif" font-size="14" lengthAdjust="spacing" textLength="64" x="570.25" y="1008.7285">Gameplay</text><line style="stroke:#181818;stroke-width:0.5;" x1="431.5" x2="740.5" y1="1019" y2="1019"/><rect fill="none" height="6" style="stroke:#C82930;stroke-width:1.0;" width="6" x="438.5" y="1030.3047"/><text fill="#000000" font-family="sans-serif" font-size="14" lengthAdjust="spacing" textLength="166" x="450.5" y="1037.5332">mainWindow: MainWindow</text><ellipse cx="441.5" cy="1072.5234" fill="#84BE84" rx="3" ry="3" style="stroke:#038048;stroke-width:1.0;"/><text fill="#000000" font-family="sans-serif" font-size="14" lengthAdjust="spacing" textLength="285" x="450.5" y="1076.752">GameplayScreen(mainWindow,MainWindow):</text><rect fill="#F24D5C" height="6" style="stroke:#C82930;stroke-width:1.0;" width="6" x="438.5" y="1087.1328"/><text fill="#000000" font-family="sans-serif" font-size="14" lengthAdjust="spacing" textLength="219" x="450.5" y="1094.3613">mov_Paddle(evt:keyPressed): void</text><rect fill="#F24D5C" height="6" style="stroke:#C82930;stroke-width:1.0;" width="6" x="438.5" y="1104.7422"/><text fill="#000000" font-family="sans-serif" font-size="14" lengthAdjust="spacing" textLength="116" x="450.5" y="1111.9707">actualizarUI(): void</text><line style="stroke:#181818;stroke-width:0.5;" x1="431.5" x2="559" y1="1053.4141" y2="1053.4141"/><text fill="#000000" font-family="sans-serif" font-size="14" lengthAdjust="spacing" textLength="54" x="559" y="1058.6426">metodos</text><line style="stroke:#181818;stroke-width:0.5;" x1="613" x2="740.5" y1="1053.4141" y2="1053.4141"/></g><!--MD5=[80f7e4c1a142a828d9fe7c64d065b6ab]
class views.EndGame--><g id="elem_views.EndGame"><rect codeLine="26" fill="#F1F1F1" height="114.4375" id="views.EndGame" rx="2.5" ry="2.5" style="stroke:#181818;stroke-width:0.5;" width="373" x="22.5" y="996"/><ellipse cx="173.25" cy="1012" fill="#ADD1B2" rx="11" ry="11" style="stroke:#181818;stroke-width:1.0;"/><path d="M176.0156,1007.875 Q176.1719,1007.6563 176.3594,1007.5469 Q176.5469,1007.4375 176.7656,1007.4375 Q177.1406,1007.4375 177.375,1007.7031 Q177.6094,1007.9531 177.6094,1008.5625 L177.6094,1010.0156 Q177.6094,1010.625 177.375,1010.8906 Q177.1406,1011.1563 176.7656,1011.1563 Q176.4219,1011.1563 176.2188,1010.9531 Q176.0156,1010.7656 175.9063,1010.25 Q175.8594,1009.8906 175.6719,1009.7031 Q175.3438,1009.3281 174.7344,1009.1094 Q174.125,1008.8906 173.5,1008.8906 Q172.7344,1008.8906 172.0938,1009.2188 Q171.4688,1009.5469 170.9688,1010.2969 Q170.4844,1011.0469 170.4844,1012.0781 L170.4844,1013.1719 Q170.4844,1014.4063 171.375,1015.2344 Q172.2656,1016.0469 173.8594,1016.0469 Q174.7969,1016.0469 175.4531,1015.7969 Q175.8438,1015.6406 176.2656,1015.2031 Q176.5313,1014.9375 176.6719,1014.8594 Q176.8281,1014.7813 177.0313,1014.7813 Q177.3594,1014.7813 177.6094,1015.0469 Q177.875,1015.2969 177.875,1015.6406 Q177.875,1015.9844 177.5313,1016.3906 Q177.0313,1016.9688 176.2344,1017.2969 Q175.1563,1017.75 173.8594,1017.75 Q172.3438,1017.75 171.1406,1017.125 Q170.1563,1016.625 169.4688,1015.5625 Q168.7813,1014.4844 168.7813,1013.2031 L168.7813,1012.0469 Q168.7813,1010.7188 169.3906,1009.5781 Q170.0156,1008.4219 171.1094,1007.8125 Q172.2031,1007.1875 173.4375,1007.1875 Q174.1719,1007.1875 174.8125,1007.3594 Q175.4688,1007.5156 176.0156,1007.875 Z " fill="#000000"/><text fill="#000000" font-family="sans-serif" font-size="14" lengthAdjust="spacing" textLength="63" x="193.75" y="1017.7285">EndGame</text><line style="stroke:#181818;stroke-width:0.5;" x1="23.5" x2="394.5" y1="1028" y2="1028"/><rect fill="none" height="6" style="stroke:#C82930;stroke-width:1.0;" width="6" x="30.5" y="1039.3047"/><text fill="#000000" font-family="sans-serif" font-size="14" lengthAdjust="spacing" textLength="166" x="42.5" y="1046.5332">mainWindow: MainWindow</text><ellipse cx="33.5" cy="1081.5234" fill="#84BE84" rx="3" ry="3" style="stroke:#038048;stroke-width:1.0;"/><text fill="#000000" font-family="sans-serif" font-size="14" lengthAdjust="spacing" textLength="284" x="42.5" y="1085.752">EndGameScreen(mainWindow,MainWindow):</text><rect fill="#F24D5C" height="6" style="stroke:#C82930;stroke-width:1.0;" width="6" x="30.5" y="1096.1328"/><text fill="#000000" font-family="sans-serif" font-size="14" lengthAdjust="spacing" textLength="347" x="42.5" y="1103.3613">btn_jugarNuevoActionPerformed(evt:ActionEvent): void</text><line style="stroke:#181818;stroke-width:0.5;" x1="23.5" x2="182" y1="1062.4141" y2="1062.4141"/><text fill="#000000" font-family="sans-serif" font-size="14" lengthAdjust="spacing" textLength="54" x="182" y="1067.6426">metodos</text><line style="stroke:#181818;stroke-width:0.5;" x1="236" x2="394.5" y1="1062.4141" y2="1062.4141"/></g><!--MD5=[9131663e35edb96fee108f9ebdf027c7]
class models.Ladrillo--><g id="elem_models.Ladrillo"><rect codeLine="33" fill="#F1F1F1" height="312.1406" id="models.Ladrillo" rx="2.5" ry="2.5" style="stroke:#181818;stroke-width:0.5;" width="128" x="374" y="70.5"/><ellipse cx="411.5" cy="86.5" fill="#ADD1B2" rx="11" ry="11" style="stroke:#181818;stroke-width:1.0;"/><path d="M414.2656,82.375 Q414.4219,82.1563 414.6094,82.0469 Q414.7969,81.9375 415.0156,81.9375 Q415.3906,81.9375 415.625,82.2031 Q415.8594,82.4531 415.8594,83.0625 L415.8594,84.5156 Q415.8594,85.125 415.625,85.3906 Q415.3906,85.6563 415.0156,85.6563 Q414.6719,85.6563 414.4688,85.4531 Q414.2656,85.2656 414.1563,84.75 Q414.1094,84.3906 413.9219,84.2031 Q413.5938,83.8281 412.9844,83.6094 Q412.375,83.3906 411.75,83.3906 Q410.9844,83.3906 410.3438,83.7188 Q409.7188,84.0469 409.2188,84.7969 Q408.7344,85.5469 408.7344,86.5781 L408.7344,87.6719 Q408.7344,88.9063 409.625,89.7344 Q410.5156,90.5469 412.1094,90.5469 Q413.0469,90.5469 413.7031,90.2969 Q414.0938,90.1406 414.5156,89.7031 Q414.7813,89.4375 414.9219,89.3594 Q415.0781,89.2813 415.2813,89.2813 Q415.6094,89.2813 415.8594,89.5469 Q416.125,89.7969 416.125,90.1406 Q416.125,90.4844 415.7813,90.8906 Q415.2813,91.4688 414.4844,91.7969 Q413.4063,92.25 412.1094,92.25 Q410.5938,92.25 409.3906,91.625 Q408.4063,91.125 407.7188,90.0625 Q407.0313,88.9844 407.0313,87.7031 L407.0313,86.5469 Q407.0313,85.2188 407.6406,84.0781 Q408.2656,82.9219 409.3594,82.3125 Q410.4531,81.6875 411.6875,81.6875 Q412.4219,81.6875 413.0625,81.8594 Q413.7188,82.0156 414.2656,82.375 Z " fill="#000000"/><text fill="#000000" font-family="sans-serif" font-size="14" lengthAdjust="spacing" textLength="46" x="430.5" y="92.2285">Ladrillo</text><line style="stroke:#181818;stroke-width:0.5;" x1="375" x2="501" y1="102.5" y2="102.5"/><rect fill="none" height="6" style="stroke:#C82930;stroke-width:1.0;" width="6" x="382" y="113.8047"/><text fill="#000000" font-family="sans-serif" font-size="14" lengthAdjust="spacing" textLength="51" x="394" y="121.0332">largo:int</text><rect fill="none" height="6" style="stroke:#C82930;stroke-width:1.0;" width="6" x="382" y="131.4141"/><text fill="#000000" font-family="sans-serif" font-size="14" lengthAdjust="spacing" textLength="58" x="394" y="138.6426">ancho:int</text><rect fill="none" height="6" style="stroke:#C82930;stroke-width:1.0;" width="6" x="382" y="149.0234"/><text fill="#000000" font-family="sans-serif" font-size="14" lengthAdjust="spacing" textLength="45" x="394" y="156.252">vida:int</text><rect fill="none" height="6" style="stroke:#C82930;stroke-width:1.0;" width="6" x="382" y="166.6328"/><text fill="#000000" font-family="sans-serif" font-size="14" lengthAdjust="spacing" textLength="98" x="394" y="173.8613">vidaMax: int = 3</text><rect fill="none" height="6" style="stroke:#C82930;stroke-width:1.0;" width="6" x="382" y="184.2422"/><text fill="#000000" font-family="sans-serif" font-size="14" lengthAdjust="spacing" textLength="69" x="394" y="191.4707">color:Color</text><ellipse cx="385" cy="226.4609" fill="#84BE84" rx="3" ry="3" style="stroke:#038048;stroke-width:1.0;"/><text fill="#000000" font-family="sans-serif" font-size="14" lengthAdjust="spacing" textLength="86" x="394" y="230.6895">getLargo():int</text><ellipse cx="385" cy="244.0703" fill="#84BE84" rx="3" ry="3" style="stroke:#038048;stroke-width:1.0;"/><text fill="#000000" font-family="sans-serif" font-size="14" lengthAdjust="spacing" textLength="83" x="394" y="248.2988">getColor():int</text><ellipse cx="385" cy="261.6797" fill="#84BE84" rx="3" ry="3" style="stroke:#038048;stroke-width:1.0;"/><text fill="#000000" font-family="sans-serif" font-size="14" lengthAdjust="spacing" textLength="77" x="394" y="265.9082">getVida():int</text><ellipse cx="385" cy="279.2891" fill="#84BE84" rx="3" ry="3" style="stroke:#038048;stroke-width:1.0;"/><text fill="#000000" font-family="sans-serif" font-size="14" lengthAdjust="spacing" textLength="102" x="394" y="283.5176">getVidaMax():int</text><line style="stroke:#181818;stroke-width:0.5;" x1="375" x2="416" y1="207.3516" y2="207.3516"/><text fill="#000000" font-family="sans-serif" font-size="14" lengthAdjust="spacing" textLength="44" x="416" y="212.5801">getters</text><line style="stroke:#181818;stroke-width:0.5;" x1="460" x2="501" y1="207.3516" y2="207.3516"/><ellipse cx="385" cy="318.5078" fill="#84BE84" rx="3" ry="3" style="stroke:#038048;stroke-width:1.0;"/><text fill="#000000" font-family="sans-serif" font-size="14" lengthAdjust="spacing" textLength="88" x="394" y="322.7363">setAncho():int</text><ellipse cx="385" cy="336.1172" fill="#84BE84" rx="3" ry="3" style="stroke:#038048;stroke-width:1.0;"/><text fill="#000000" font-family="sans-serif" font-size="14" lengthAdjust="spacing" textLength="76" x="394" y="340.3457">setVida():int</text><ellipse cx="385" cy="353.7266" fill="#84BE84" rx="3" ry="3" style="stroke:#038048;stroke-width:1.0;"/><text fill="#000000" font-family="sans-serif" font-size="14" lengthAdjust="spacing" textLength="101" x="394" y="357.9551">setVidaMax():int</text><ellipse cx="385" cy="371.3359" fill="#84BE84" rx="3" ry="3" style="stroke:#038048;stroke-width:1.0;"/><text fill="#000000" font-family="sans-serif" font-size="14" lengthAdjust="spacing" textLength="82" x="394" y="375.5645">setColor():int</text><line style="stroke:#181818;stroke-width:0.5;" x1="375" x2="416.5" y1="299.3984" y2="299.3984"/><text fill="#000000" font-family="sans-serif" font-size="14" lengthAdjust="spacing" textLength="43" x="416.5" y="304.627">setters</text><line style="stroke:#181818;stroke-width:0.5;" x1="459.5" x2="501" y1="299.3984" y2="299.3984"/></g><!--MD5=[6f54bf65b4d5e30be862cd7f6f393812]
class models.Paddle--><g id="elem_models.Paddle"><rect codeLine="51" fill="#F1F1F1" height="276.9219" id="models.Paddle" rx="2.5" ry="2.5" style="stroke:#181818;stroke-width:0.5;" width="95" x="243.5" y="88"/><ellipse cx="267.05" cy="104" fill="#ADD1B2" rx="11" ry="11" style="stroke:#181818;stroke-width:1.0;"/><path d="M269.8156,99.875 Q269.9719,99.6563 270.1594,99.5469 Q270.3469,99.4375 270.5656,99.4375 Q270.9406,99.4375 271.175,99.7031 Q271.4094,99.9531 271.4094,100.5625 L271.4094,102.0156 Q271.4094,102.625 271.175,102.8906 Q270.9406,103.1563 270.5656,103.1563 Q270.2219,103.1563 270.0188,102.9531 Q269.8156,102.7656 269.7063,102.25 Q269.6594,101.8906 269.4719,101.7031 Q269.1438,101.3281 268.5344,101.1094 Q267.925,100.8906 267.3,100.8906 Q266.5344,100.8906 265.8938,101.2188 Q265.2688,101.5469 264.7688,102.2969 Q264.2844,103.0469 264.2844,104.0781 L264.2844,105.1719 Q264.2844,106.4063 265.175,107.2344 Q266.0656,108.0469 267.6594,108.0469 Q268.5969,108.0469 269.2531,107.7969 Q269.6438,107.6406 270.0656,107.2031 Q270.3313,106.9375 270.4719,106.8594 Q270.6281,106.7813 270.8313,106.7813 Q271.1594,106.7813 271.4094,107.0469 Q271.675,107.2969 271.675,107.6406 Q271.675,107.9844 271.3313,108.3906 Q270.8313,108.9688 270.0344,109.2969 Q268.9563,109.75 267.6594,109.75 Q266.1438,109.75 264.9406,109.125 Q263.9563,108.625 263.2688,107.5625 Q262.5813,106.4844 262.5813,105.2031 L262.5813,104.0469 Q262.5813,102.7188 263.1906,101.5781 Q263.8156,100.4219 264.9094,99.8125 Q266.0031,99.1875 267.2375,99.1875 Q267.9719,99.1875 268.6125,99.3594 Q269.2688,99.5156 269.8156,99.875 Z " fill="#000000"/><text fill="#000000" font-family="sans-serif" font-size="14" lengthAdjust="spacing" textLength="44" x="282.95" y="109.7285">Paddle</text><line style="stroke:#181818;stroke-width:0.5;" x1="244.5" x2="337.5" y1="120" y2="120"/><rect fill="none" height="6" style="stroke:#C82930;stroke-width:1.0;" width="6" x="251.5" y="131.3047"/><text fill="#000000" font-family="sans-serif" font-size="14" lengthAdjust="spacing" textLength="51" x="263.5" y="138.5332">largo:int</text><rect fill="none" height="6" style="stroke:#C82930;stroke-width:1.0;" width="6" x="251.5" y="148.9141"/><text fill="#000000" font-family="sans-serif" font-size="14" lengthAdjust="spacing" textLength="58" x="263.5" y="156.1426">ancho:int</text><rect fill="none" height="6" style="stroke:#C82930;stroke-width:1.0;" width="6" x="251.5" y="166.5234"/><text fill="#000000" font-family="sans-serif" font-size="14" lengthAdjust="spacing" textLength="27" x="263.5" y="173.752">X:int</text><rect fill="none" height="6" style="stroke:#C82930;stroke-width:1.0;" width="6" x="251.5" y="184.1328"/><text fill="#000000" font-family="sans-serif" font-size="14" lengthAdjust="spacing" textLength="28" x="263.5" y="191.3613">Y:int</text><rect fill="none" height="6" style="stroke:#C82930;stroke-width:1.0;" width="6" x="251.5" y="201.7422"/><text fill="#000000" font-family="sans-serif" font-size="14" lengthAdjust="spacing" textLength="37" x="263.5" y="208.9707">vel:int</text><ellipse cx="254.5" cy="243.9609" fill="#84BE84" rx="3" ry="3" style="stroke:#038048;stroke-width:1.0;"/><text fill="#000000" font-family="sans-serif" font-size="14" lengthAdjust="spacing" textLength="69" x="263.5" y="248.1895">getVel():int</text><ellipse cx="254.5" cy="261.5703" fill="#84BE84" rx="3" ry="3" style="stroke:#038048;stroke-width:1.0;"/><text fill="#000000" font-family="sans-serif" font-size="14" lengthAdjust="spacing" textLength="57" x="263.5" y="265.7988">getX():int</text><ellipse cx="254.5" cy="279.1797" fill="#84BE84" rx="3" ry="3" style="stroke:#038048;stroke-width:1.0;"/><text fill="#000000" font-family="sans-serif" font-size="14" lengthAdjust="spacing" textLength="58" x="263.5" y="283.4082">getY():int</text><line style="stroke:#181818;stroke-width:0.5;" x1="244.5" x2="269" y1="224.8516" y2="224.8516"/><text fill="#000000" font-family="sans-serif" font-size="14" lengthAdjust="spacing" textLength="44" x="269" y="230.0801">getters</text><line style="stroke:#181818;stroke-width:0.5;" x1="313" x2="337.5" y1="224.8516" y2="224.8516"/><ellipse cx="254.5" cy="318.3984" fill="#84BE84" rx="3" ry="3" style="stroke:#038048;stroke-width:1.0;"/><text fill="#000000" font-family="sans-serif" font-size="14" lengthAdjust="spacing" textLength="68" x="263.5" y="322.627">setVel():int</text><ellipse cx="254.5" cy="336.0078" fill="#84BE84" rx="3" ry="3" style="stroke:#038048;stroke-width:1.0;"/><text fill="#000000" font-family="sans-serif" font-size="14" lengthAdjust="spacing" textLength="56" x="263.5" y="340.2363">setX():int</text><ellipse cx="254.5" cy="353.6172" fill="#84BE84" rx="3" ry="3" style="stroke:#038048;stroke-width:1.0;"/><text fill="#000000" font-family="sans-serif" font-size="14" lengthAdjust="spacing" textLength="57" x="263.5" y="357.8457">setY():int</text><line style="stroke:#181818;stroke-width:0.5;" x1="244.5" x2="269.5" y1="299.2891" y2="299.2891"/><text fill="#000000" font-family="sans-serif" font-size="14" lengthAdjust="spacing" textLength="43" x="269.5" y="304.5176">setters</text><line style="stroke:#181818;stroke-width:0.5;" x1="312.5" x2="337.5" y1="299.2891" y2="299.2891"/></g><!--MD5=[c935c9f1d9ae06991b7ddc5811b4a76b]
class models.Pelota--><g id="elem_models.Pelota"><rect codeLine="67" fill="#F1F1F1" height="368.9688" id="models.Pelota" rx="2.5" ry="2.5" style="stroke:#181818;stroke-width:0.5;" width="104" x="104" y="42"/><ellipse cx="133.4" cy="58" fill="#ADD1B2" rx="11" ry="11" style="stroke:#181818;stroke-width:1.0;"/><path d="M136.1656,53.875 Q136.3219,53.6563 136.5094,53.5469 Q136.6969,53.4375 136.9156,53.4375 Q137.2906,53.4375 137.525,53.7031 Q137.7594,53.9531 137.7594,54.5625 L137.7594,56.0156 Q137.7594,56.625 137.525,56.8906 Q137.2906,57.1563 136.9156,57.1563 Q136.5719,57.1563 136.3688,56.9531 Q136.1656,56.7656 136.0563,56.25 Q136.0094,55.8906 135.8219,55.7031 Q135.4938,55.3281 134.8844,55.1094 Q134.275,54.8906 133.65,54.8906 Q132.8844,54.8906 132.2438,55.2188 Q131.6188,55.5469 131.1188,56.2969 Q130.6344,57.0469 130.6344,58.0781 L130.6344,59.1719 Q130.6344,60.4063 131.525,61.2344 Q132.4156,62.0469 134.0094,62.0469 Q134.9469,62.0469 135.6031,61.7969 Q135.9938,61.6406 136.4156,61.2031 Q136.6813,60.9375 136.8219,60.8594 Q136.9781,60.7813 137.1813,60.7813 Q137.5094,60.7813 137.7594,61.0469 Q138.025,61.2969 138.025,61.6406 Q138.025,61.9844 137.6813,62.3906 Q137.1813,62.9688 136.3844,63.2969 Q135.3063,63.75 134.0094,63.75 Q132.4938,63.75 131.2906,63.125 Q130.3063,62.625 129.6188,61.5625 Q128.9313,60.4844 128.9313,59.2031 L128.9313,58.0469 Q128.9313,56.7188 129.5406,55.5781 Q130.1656,54.4219 131.2594,53.8125 Q132.3531,53.1875 133.5875,53.1875 Q134.3219,53.1875 134.9625,53.3594 Q135.6188,53.5156 136.1656,53.875 Z " fill="#000000"/><text fill="#000000" font-family="sans-serif" font-size="14" lengthAdjust="spacing" textLength="40" x="150.6" y="63.7285">Pelota</text><line style="stroke:#181818;stroke-width:0.5;" x1="105" x2="207" y1="74" y2="74"/><rect fill="none" height="6" style="stroke:#C82930;stroke-width:1.0;" width="6" x="112" y="85.3047"/><text fill="#000000" font-family="sans-serif" font-size="14" lengthAdjust="spacing" textLength="45" x="124" y="92.5332">velX:int</text><rect fill="none" height="6" style="stroke:#C82930;stroke-width:1.0;" width="6" x="112" y="102.9141"/><text fill="#000000" font-family="sans-serif" font-size="14" lengthAdjust="spacing" textLength="46" x="124" y="110.1426">velY:int</text><rect fill="none" height="6" style="stroke:#C82930;stroke-width:1.0;" width="6" x="112" y="120.5234"/><text fill="#000000" font-family="sans-serif" font-size="14" lengthAdjust="spacing" textLength="27" x="124" y="127.752">X:int</text><rect fill="none" height="6" style="stroke:#C82930;stroke-width:1.0;" width="6" x="112" y="138.1328"/><text fill="#000000" font-family="sans-serif" font-size="14" lengthAdjust="spacing" textLength="28" x="124" y="145.3613">Y:int</text><rect fill="none" height="6" style="stroke:#C82930;stroke-width:1.0;" width="6" x="112" y="155.7422"/><text fill="#000000" font-family="sans-serif" font-size="14" lengthAdjust="spacing" textLength="51" x="124" y="162.9707">radio:int</text><rect fill="none" height="6" style="stroke:#C82930;stroke-width:1.0;" width="6" x="112" y="173.3516"/><text fill="#000000" font-family="sans-serif" font-size="14" lengthAdjust="spacing" textLength="69" x="124" y="180.5801">color:Color</text><ellipse cx="115" cy="215.5703" fill="#84BE84" rx="3" ry="3" style="stroke:#038048;stroke-width:1.0;"/><text fill="#000000" font-family="sans-serif" font-size="14" lengthAdjust="spacing" textLength="77" x="124" y="219.7988">getVelX():int</text><ellipse cx="115" cy="233.1797" fill="#84BE84" rx="3" ry="3" style="stroke:#038048;stroke-width:1.0;"/><text fill="#000000" font-family="sans-serif" font-size="14" lengthAdjust="spacing" textLength="78" x="124" y="237.4082">getVelY():int</text><ellipse cx="115" cy="250.7891" fill="#84BE84" rx="3" ry="3" style="stroke:#038048;stroke-width:1.0;"/><text fill="#000000" font-family="sans-serif" font-size="14" lengthAdjust="spacing" textLength="57" x="124" y="255.0176">getX():int</text><ellipse cx="115" cy="268.3984" fill="#84BE84" rx="3" ry="3" style="stroke:#038048;stroke-width:1.0;"/><text fill="#000000" font-family="sans-serif" font-size="14" lengthAdjust="spacing" textLength="58" x="124" y="272.627">getY():int</text><line style="stroke:#181818;stroke-width:0.5;" x1="105" x2="134" y1="196.4609" y2="196.4609"/><text fill="#000000" font-family="sans-serif" font-size="14" lengthAdjust="spacing" textLength="44" x="134" y="201.6895">getters</text><line style="stroke:#181818;stroke-width:0.5;" x1="178" x2="207" y1="196.4609" y2="196.4609"/><ellipse cx="115" cy="307.6172" fill="#84BE84" rx="3" ry="3" style="stroke:#038048;stroke-width:1.0;"/><text fill="#000000" font-family="sans-serif" font-size="14" lengthAdjust="spacing" textLength="76" x="124" y="311.8457">setVelX():int</text><ellipse cx="115" cy="325.2266" fill="#84BE84" rx="3" ry="3" style="stroke:#038048;stroke-width:1.0;"/><text fill="#000000" font-family="sans-serif" font-size="14" lengthAdjust="spacing" textLength="77" x="124" y="329.4551">setVelY():int</text><ellipse cx="115" cy="342.8359" fill="#84BE84" rx="3" ry="3" style="stroke:#038048;stroke-width:1.0;"/><text fill="#000000" font-family="sans-serif" font-size="14" lengthAdjust="spacing" textLength="56" x="124" y="347.0645">setX():int</text><ellipse cx="115" cy="360.4453" fill="#84BE84" rx="3" ry="3" style="stroke:#038048;stroke-width:1.0;"/><text fill="#000000" font-family="sans-serif" font-size="14" lengthAdjust="spacing" textLength="57" x="124" y="364.6738">setY():int</text><line style="stroke:#181818;stroke-width:0.5;" x1="105" x2="134.5" y1="288.5078" y2="288.5078"/><text fill="#000000" font-family="sans-serif" font-size="14" lengthAdjust="spacing" textLength="43" x="134.5" y="293.7363">setters</text><line style="stroke:#181818;stroke-width:0.5;" x1="177.5" x2="207" y1="288.5078" y2="288.5078"/><ellipse cx="115" cy="399.6641" fill="#84BE84" rx="3" ry="3" style="stroke:#038048;stroke-width:1.0;"/><text fill="#000000" font-family="sans-serif" font-size="14" lengthAdjust="spacing" textLength="55" x="124" y="403.8926">hit():void</text><line style="stroke:#181818;stroke-width:0.5;" x1="105" x2="129" y1="380.5547" y2="380.5547"/><text fill="#000000" font-family="sans-serif" font-size="14" lengthAdjust="spacing" textLength="54" x="129" y="385.7832">metodos</text><line style="stroke:#181818;stroke-width:0.5;" x1="183" x2="207" y1="380.5547" y2="380.5547"/></g><!--MD5=[4fe70b8f967bc78138b59b4fd8206ca7]
class controllers.EnJuego--><g id="elem_controllers.EnJuego"><rect codeLine="88" fill="#F1F1F1" height="316.1406" id="controllers.EnJuego" rx="2.5" ry="2.5" style="stroke:#181818;stroke-width:0.5;" width="175" x="219.5" y="487"/><ellipse cx="275.25" cy="503" fill="#ADD1B2" rx="11" ry="11" style="stroke:#181818;stroke-width:1.0;"/><path d="M278.0156,498.875 Q278.1719,498.6563 278.3594,498.5469 Q278.5469,498.4375 278.7656,498.4375 Q279.1406,498.4375 279.375,498.7031 Q279.6094,498.9531 279.6094,499.5625 L279.6094,501.0156 Q279.6094,501.625 279.375,501.8906 Q279.1406,502.1563 278.7656,502.1563 Q278.4219,502.1563 278.2188,501.9531 Q278.0156,501.7656 277.9063,501.25 Q277.8594,500.8906 277.6719,500.7031 Q277.3438,500.3281 276.7344,500.1094 Q276.125,499.8906 275.5,499.8906 Q274.7344,499.8906 274.0938,500.2188 Q273.4688,500.5469 272.9688,501.2969 Q272.4844,502.0469 272.4844,503.0781 L272.4844,504.1719 Q272.4844,505.4063 273.375,506.2344 Q274.2656,507.0469 275.8594,507.0469 Q276.7969,507.0469 277.4531,506.7969 Q277.8438,506.6406 278.2656,506.2031 Q278.5313,505.9375 278.6719,505.8594 Q278.8281,505.7813 279.0313,505.7813 Q279.3594,505.7813 279.6094,506.0469 Q279.875,506.2969 279.875,506.6406 Q279.875,506.9844 279.5313,507.3906 Q279.0313,507.9688 278.2344,508.2969 Q277.1563,508.75 275.8594,508.75 Q274.3438,508.75 273.1406,508.125 Q272.1563,507.625 271.4688,506.5625 Q270.7813,505.4844 270.7813,504.2031 L270.7813,503.0469 Q270.7813,501.7188 271.3906,500.5781 Q272.0156,499.4219 273.1094,498.8125 Q274.2031,498.1875 275.4375,498.1875 Q276.1719,498.1875 276.8125,498.3594 Q277.4688,498.5156 278.0156,498.875 Z " fill="#000000"/><text fill="#000000" font-family="sans-serif" font-size="14" lengthAdjust="spacing" textLength="55" x="295.75" y="508.7285">EnJuego</text><line style="stroke:#181818;stroke-width:0.5;" x1="220.5" x2="393.5" y1="519" y2="519"/><rect fill="none" height="6" style="stroke:#C82930;stroke-width:1.0;" width="6" x="227.5" y="530.3047"/><text fill="#000000" font-family="sans-serif" font-size="14" lengthAdjust="spacing" textLength="52" x="239.5" y="537.5332">vidas:int</text><rect fill="none" height="6" style="stroke:#C82930;stroke-width:1.0;" width="6" x="227.5" y="547.9141"/><text fill="#000000" font-family="sans-serif" font-size="14" lengthAdjust="spacing" textLength="83" x="239.5" y="555.1426">pelota:Pelota</text><rect fill="none" height="6" style="stroke:#C82930;stroke-width:1.0;" width="6" x="227.5" y="565.5234"/><text fill="#000000" font-family="sans-serif" font-size="14" lengthAdjust="spacing" textLength="91" x="239.5" y="572.752">paddle:Paddle</text><rect fill="none" height="6" style="stroke:#C82930;stroke-width:1.0;" width="6" x="227.5" y="583.1328"/><text fill="#000000" font-family="sans-serif" font-size="14" lengthAdjust="spacing" textLength="114" x="239.5" y="590.3613">ladrillos[][]:Ladrillo</text><ellipse cx="230.5" cy="625.3516" fill="#84BE84" rx="3" ry="3" style="stroke:#038048;stroke-width:1.0;"/><text fill="#000000" font-family="sans-serif" font-size="14" lengthAdjust="spacing" textLength="84" x="239.5" y="629.5801">getVidas():int</text><line style="stroke:#181818;stroke-width:0.5;" x1="220.5" x2="285" y1="606.2422" y2="606.2422"/><text fill="#000000" font-family="sans-serif" font-size="14" lengthAdjust="spacing" textLength="44" x="285" y="611.4707">getters</text><line style="stroke:#181818;stroke-width:0.5;" x1="329" x2="393.5" y1="606.2422" y2="606.2422"/><ellipse cx="230.5" cy="664.5703" fill="#84BE84" rx="3" ry="3" style="stroke:#038048;stroke-width:1.0;"/><text fill="#000000" font-family="sans-serif" font-size="14" lengthAdjust="spacing" textLength="83" x="239.5" y="668.7988">setVidas():int</text><line style="stroke:#181818;stroke-width:0.5;" x1="220.5" x2="285.5" y1="645.4609" y2="645.4609"/><text fill="#000000" font-family="sans-serif" font-size="14" lengthAdjust="spacing" textLength="43" x="285.5" y="650.6895">setters</text><line style="stroke:#181818;stroke-width:0.5;" x1="328.5" x2="393.5" y1="645.4609" y2="645.4609"/><ellipse cx="230.5" cy="703.7891" fill="#84BE84" rx="3" ry="3" style="stroke:#038048;stroke-width:1.0;"/><text fill="#000000" font-family="sans-serif" font-size="14" lengthAdjust="spacing" textLength="102" x="239.5" y="708.0176">colBloque():void</text><ellipse cx="230.5" cy="721.3984" fill="#84BE84" rx="3" ry="3" style="stroke:#038048;stroke-width:1.0;"/><text fill="#000000" font-family="sans-serif" font-size="14" lengthAdjust="spacing" textLength="98" x="239.5" y="725.627">colPelota():void</text><ellipse cx="230.5" cy="739.0078" fill="#84BE84" rx="3" ry="3" style="stroke:#038048;stroke-width:1.0;"/><text fill="#000000" font-family="sans-serif" font-size="14" lengthAdjust="spacing" textLength="142" x="239.5" y="743.2363">colPelotaBloque():void</text><ellipse cx="230.5" cy="756.6172" fill="#84BE84" rx="3" ry="3" style="stroke:#038048;stroke-width:1.0;"/><text fill="#000000" font-family="sans-serif" font-size="14" lengthAdjust="spacing" textLength="143" x="239.5" y="760.8457">generarLadrillos():void</text><ellipse cx="230.5" cy="774.2266" fill="#84BE84" rx="3" ry="3" style="stroke:#038048;stroke-width:1.0;"/><text fill="#000000" font-family="sans-serif" font-size="14" lengthAdjust="spacing" textLength="149" x="239.5" y="778.4551">pintarComponent():void</text><ellipse cx="230.5" cy="791.8359" fill="#84BE84" rx="3" ry="3" style="stroke:#038048;stroke-width:1.0;"/><text fill="#000000" font-family="sans-serif" font-size="14" lengthAdjust="spacing" textLength="91" x="239.5" y="796.0645">ganaste():void</text><line style="stroke:#181818;stroke-width:0.5;" x1="220.5" x2="280" y1="684.6797" y2="684.6797"/><text fill="#000000" font-family="sans-serif" font-size="14" lengthAdjust="spacing" textLength="54" x="280" y="689.9082">metodos</text><line style="stroke:#181818;stroke-width:0.5;" x1="334" x2="393.5" y1="684.6797" y2="684.6797"/></g><!--MD5=[7385ad939b1b3746758d1bd9d4436bd2]
class enum.pantallas--><g id="elem_enum.pantallas"><rect codeLine="106" fill="#F1F1F1" height="100.8281" id="enum.pantallas" rx="2.5" ry="2.5" style="stroke:#181818;stroke-width:0.5;" width="89" x="558.5" y="176"/><ellipse cx="573.5" cy="192" fill="#EB937F" rx="11" ry="11" style="stroke:#181818;stroke-width:1.0;"/><path d="M572.3594,192.7969 L572.3594,195.2969 L576.6875,195.2969 L576.6875,194.375 Q576.6875,193.7656 576.9219,193.5 Q577.1719,193.2344 577.5469,193.2344 Q577.9219,193.2344 578.1563,193.5 Q578.3906,193.7656 578.3906,194.375 L578.3906,197 L570.3906,197 Q569.7656,197 569.5,196.7656 Q569.25,196.5313 569.25,196.1406 Q569.25,195.7656 569.5156,195.5313 Q569.7813,195.2969 570.3906,195.2969 L570.6563,195.2969 L570.6563,188.6406 L570.3906,188.6406 Q569.7656,188.6406 569.5,188.4063 Q569.25,188.1719 569.25,187.7813 Q569.25,187.4063 569.5,187.1719 Q569.7656,186.9375 570.3906,186.9375 L578.0156,186.9375 L578.0156,189.5313 Q578.0156,190.1406 577.7813,190.4063 Q577.5625,190.6563 577.1719,190.6563 Q576.7969,190.6563 576.5625,190.4063 Q576.3281,190.1406 576.3281,189.5313 L576.3281,188.6406 L572.3594,188.6406 L572.3594,191.0938 L573.8438,191.0938 Q573.8438,190.4375 573.9688,190.25 Q574.2344,189.8438 574.7031,189.8438 Q575.0781,189.8438 575.3125,190.1094 Q575.5469,190.3594 575.5469,190.9688 L575.5469,192.9375 Q575.5469,193.4844 575.4219,193.6719 Q575.1563,194.0625 574.7031,194.0625 Q574.2344,194.0625 573.9688,193.6563 Q573.8438,193.4688 573.8438,192.7969 L572.3594,192.7969 Z " fill="#000000"/><text fill="#000000" font-family="sans-serif" font-size="14" lengthAdjust="spacing" textLength="57" x="587.5" y="197.7285">pantallas</text><line style="stroke:#181818;stroke-width:0.5;" x1="559.5" x2="646.5" y1="208" y2="208"/><text fill="#000000" font-family="sans-serif" font-size="14" lengthAdjust="spacing" textLength="34" x="564.5" y="226.5332">Start,</text><text fill="#000000" font-family="sans-serif" font-size="14" lengthAdjust="spacing" textLength="68" x="564.5" y="244.1426">Gameplay,</text><text fill="#000000" font-family="sans-serif" font-size="14" lengthAdjust="spacing" textLength="63" x="564.5" y="261.752">EndGame</text><line style="stroke:#181818;stroke-width:0.5;" x1="559.5" x2="646.5" y1="268.8281" y2="268.8281"/></g><!--MD5=[9042ba0567af2841aad2714462601755]
reverse link main.JPanel to views.Start--><g id="link_main.JPanel_views.Start"><path d="M642.48,902.45 C676.88,912.1 721.31,926.11 759,943 C792.37,957.96 827.31,977.54 857.66,995.98 " fill="none" id="main.JPanel-backto-views.Start" style="stroke:#181818;stroke-width:1.0;"/><polygon fill="none" points="640.47,909.15,623.01,897.15,644.14,895.65,640.47,909.15" style="stroke:#181818;stroke-width:1.0;"/></g><!--MD5=[6b876439cb3798a0a28fc3ea04b5748a]
reverse link main.JPanel to views.Gameplay--><g id="link_main.JPanel_views.Gameplay"><path d="M586,931.18 C586,948.21 586,968.14 586,986.85 " fill="none" id="main.JPanel-backto-views.Gameplay" style="stroke:#181818;stroke-width:1.0;"/><polygon fill="none" points="579,931.15,586,911.15,593,931.15,579,931.15" style="stroke:#181818;stroke-width:1.0;"/></g><!--MD5=[b05178a5224d9ad0bfbfac977d1d61d4]
reverse link main.JPanel to views.EndGame--><g id="link_main.JPanel_views.EndGame"><path d="M529.46,903.14 C495.2,913 450.93,927 413,943 C376.93,958.22 338.74,977.66 305.28,995.89 " fill="none" id="main.JPanel-backto-views.EndGame" style="stroke:#181818;stroke-width:1.0;"/><polygon fill="none" points="527.7,896.36,548.85,897.68,531.49,909.84,527.7,896.36" style="stroke:#181818;stroke-width:1.0;"/></g><!--MD5=[eebd1e5abb1221c5fae7858608a1426d]
link main.MainWindow to main.JPanel--><g id="link_main.MainWindow_main.JPanel"><path codeLine="112" d="M586,726.25 C586,774.08 586,831.41 586,862.73 " fill="none" id="main.MainWindow-main.JPanel" style="stroke:#181818;stroke-width:1.0;"/></g><!--MD5=[fe7a748c70a6b755ee50a5ef5f7a2f56]
link models.Ladrillo to controllers.EnJuego--><g id="link_models.Ladrillo_controllers.EnJuego"><path codeLine="113" d="M389.22,382.59 C378.53,416.59 367.2,452.61 356.48,486.7 " fill="none" id="models.Ladrillo-controllers.EnJuego" style="stroke:#181818;stroke-width:1.0;"/></g><!--MD5=[586c243402cbbaec7797ee49114540a6]
link models.Paddle to controllers.EnJuego--><g id="link_models.Paddle_controllers.EnJuego"><path codeLine="114" d="M296.28,365.03 C297.78,404.01 299.42,446.74 300.96,486.78 " fill="none" id="models.Paddle-controllers.EnJuego" style="stroke:#181818;stroke-width:1.0;"/></g><!--MD5=[d01995d7d8f91a9643f6c3e0a0542307]
link models.Pelota to controllers.EnJuego--><g id="link_models.Pelota_controllers.EnJuego"><path codeLine="115" d="M208.01,384.11 C213.97,401.32 220.04,418.56 226,435 C232.1,451.83 238.62,469.36 245.21,486.8 " fill="none" id="models.Pelota-controllers.EnJuego" style="stroke:#181818;stroke-width:1.0;"/></g><!--MD5=[8f47d8bc3b58b72a70b4091123ebf337]
link controllers.EnJuego to main.MainWindow--><g id="link_controllers.EnJuego_main.MainWindow"><path codeLine="116" d="M394.73,645 C424.12,645 453.51,645 482.89,645 " fill="none" id="controllers.EnJuego-main.MainWindow" style="stroke:#181818;stroke-width:1.0;"/></g><!--MD5=[dccb1881065757e8d3937a2c69bb080c]
link enum.pantallas to main.MainWindow--><g id="link_enum.pantallas_main.MainWindow"><path codeLine="117" d="M600.97,277.33 C598.07,348.26 592.73,479.11 589.27,563.8 " fill="none" id="enum.pantallas-main.MainWindow" style="stroke:#181818;stroke-width:1.0;"/></g><!--MD5=[73623fa089772725dba994664d5a19e4]
@startuml OwlBreaker

class main.MainWindow {
    -ContenidoActual:JPanel
    __getters__
    +getContenidoActual():JPanel
    __setters__
    +setContenidoActual():JPanel
    __metodos__
}

class views.Start extends main.JPanel {
    -mainWindow: MainWindow 
    __metodos__
    + MainScreen(mainWindow,MainWindow):
    - btn_jugarActionPerformed(evt:ActionEvent): void
}

class views.Gameplay extends main.JPanel {
    -mainWindow: MainWindow 
    __metodos__
    + GameplayScreen(mainWindow,MainWindow):
    - mov_Paddle(evt:keyPressed): void
    - actualizarUI(): void
}

class views.EndGame extends main.JPanel {
    -mainWindow: MainWindow 
    __metodos__
    + EndGameScreen(mainWindow,MainWindow):
    - btn_jugarNuevoActionPerformed(evt:ActionEvent): void
}

class models.Ladrillo {
    -largo:int
    -ancho:int
    -vida:int
    -vidaMax: int = 3
    -color:Color
    __getters__
    +getLargo():int
    +getColor():int
    +getVida():int
    +getVidaMax():int
    __setters__
    +setAncho():int
    +setVida():int
    +setVidaMax():int
    +setColor():int
}

class models.Paddle {
    -largo:int
    -ancho:int
    -X:int
    -Y:int
    -vel:int
    __getters__
    +getVel():int
    +getX():int
    +getY():int
    __setters__
    +setVel():int
    +setX():int
    +setY():int
}

class models.Pelota {
    -velX:int
    -velY:int
    -X:int
    -Y:int
    -radio:int
    -color:Color
    __getters__
    +getVelX():int
    +getVelY():int
    +getX():int
    +getY():int
    __setters__
    +setVelX():int
    +setVelY():int
    +setX():int
    +setY():int
    __metodos__
    +hit():void
}

class controllers.EnJuego {
    -vidas:int
    -pelota:Pelota
    -paddle:Paddle
    -ladrillos[][]:Ladrillo
    __getters__
    +getVidas():int
    __setters__
    +setVidas():int
    __metodos__
    + colBloque():void
    + colPelota():void
    + colPelotaBloque():void
    + generarLadrillos():void
    + pintarComponent():void
    + ganaste():void
}

enum enum.pantallas{
    Start,
    Gameplay,
    EndGame
}

main.MainWindow - - main.JPanel
models.Ladrillo - - controllers.EnJuego
models.Paddle - - controllers.EnJuego
models.Pelota - - controllers.EnJuego
controllers.EnJuego - main.MainWindow
enum.pantallas - - main.MainWindow

@enduml OwlBreaker

PlantUML version 1.2022.7(Mon Aug 22 10:01:30 MST 2022)
(GPL source distribution)
Java Runtime: Java(TM) SE Runtime Environment
JVM: Java HotSpot(TM) 64-Bit Server VM
Default Encoding: UTF-8
Language: es
Country: MX
--></g></svg>